<svg xmlns="http://www.w3.org/2000/svg" xmlns:xlink="http://www.w3.org/1999/xlink" version="1.1" x="0px" y="0px" viewBox="0 0 64 64" enable-background="new 0 0 64 64" xml:space="preserve"><g><path id="debug-spanner" class="debug-icon" d="M3.03,1.06L1.334,2.756c-1.413,1.413-1.413,3.727,0,5.14l23.671,22.643c0.063,0.063,0.13,0.113,0.195,0.173   c-1.459,3.232-1.215,7.126,0.999,10.215c2.246,3.138,5.937,4.627,9.519,4.221l-5.086-7.096c-0.872-1.218-0.589-2.927,0.629-3.8   l3.699-2.648c1.217-0.871,2.926-0.59,3.799,0.628l5.084,7.098c1.537-3.26,1.314-7.232-0.934-10.37   c-2.703-3.771-7.482-5.157-11.659-3.735c-0.135-0.169-0.278-0.334-0.438-0.492L8.17,1.06C6.757-0.354,4.443-0.354,3.03,1.06z    M7.612,4.099c0.895,0.895,0.895,2.345,0,3.239c-0.894,0.895-2.344,0.895-3.238,0C3.48,6.444,3.48,4.994,4.375,4.1   C5.269,3.205,6.719,3.205,7.612,4.099z"/><path id="debug-cog" class="debug-icon" d="M63.726,37.507v-8.541l-6.018-0.725c-0.654-3.261-1.938-6.292-3.717-8.967l3.744-4.771l-6.039-6.04l-4.771,3.746   c-2.676-1.779-5.707-3.063-8.967-3.717l-0.725-6.02h-8.542l-0.726,6.02c-2.182,0.438-4.256,1.163-6.194,2.123l5.893,6.481   c1.669-0.547,3.446-0.854,5.3-0.854c9.383,0,16.992,7.608,16.992,16.993s-7.609,16.993-16.992,16.993   c-9.387,0-16.995-7.608-16.995-16.993c0-1.993,0.361-3.897,0.992-5.675l-6.778-5.202c-0.884,1.848-1.552,3.818-1.967,5.882   l-6.018,0.725v8.541l6.019,0.726c0.654,3.26,1.938,6.292,3.719,8.966l-3.746,4.772l6.039,6.038l4.772-3.744   c2.674,1.779,5.705,3.063,8.965,3.717L28.691,64h8.542l0.725-6.019c3.26-0.654,6.293-1.938,8.967-3.717l4.771,3.744l6.039-6.038   l-3.744-4.772c1.777-2.675,3.063-5.706,3.717-8.966L63.726,37.507z"/></g></svg>