<svg version="1.1" id="Layer_1" xmlns="http://www.w3.org/2000/svg" xmlns:xlink="http://www.w3.org/1999/xlink" x="0px" y="0px" viewBox="703.5 165.3 464 798.2" enable-background="new 703.5 165.3 464 798.2" xml:space="preserve"><g id="Mouse_base_white"><path id="Base" fill="#FFFFFF" stroke="#000000" stroke-width="4" stroke-miterlimit="10" d="M705.5,576.9v-218 c0-105.4,86.2-191.6,191.6-191.6h76.7c105.4,0,191.6,86.2,191.6,191.6v218C1165.5,1089.7,705.5,1089.7,705.5,576.9z"/><path id="primary" class="mouse-button" fill="#FFFFFF" stroke="#000000" stroke-width="4" stroke-miterlimit="10" d="M920.5,199.1v194.1 c0,6.5-5.1,11.7-11.7,11.7H740.5c-3.9,0-6.9-3.2-6.9-6.9c-1.4-120.8,52.2-202.6,179.5-205.8C917,192.2,920.5,195.1,920.5,199.1z"/><path id="secondary" class="mouse-button" fill="#FFFFFF" stroke="#000000" stroke-width="4" stroke-miterlimit="10" d="M953,199.1v194.1 c0,6.5,5.1,11.7,11.7,11.7h165.8c3.9,0,6.9-3.2,6.9-6.9c1.4-119.6-50-202.6-177-205.8C956,192.2,953,195.1,953,199.1z"/><path id="tertiary" class="mouse-button" fill="#FFFFFF" stroke="#000000" stroke-width="3" stroke-miterlimit="10" d="M937.8,355.6L937.8,355.6 c-14.2,0-25.6-11.6-25.6-25.6v-62.8c0-13.9,11.6-25.6,25.6-25.6l0,0c14.2,0,25.6,11.6,25.6,25.6V330 C963.3,343.9,952,355.6,937.8,355.6z"/></g></svg>