<svg xmlns="http://www.w3.org/2000/svg" xmlns:xlink="http://www.w3.org/1999/xlink" version="1.1" x="0px" y="0px" viewBox="0 0 100 100" enable-background="new 0 0 100 100" xml:space="preserve"><path id="svg-full" fill-rule="evenodd" clip-rule="evenodd" d="M71.42,24.01c-12.84-9.94-30.01-9.43-42.29,1.51l3.62,3.621  c10.27-8.96,24.221-9.46,35.02-1.48L71.42,24.01z M55.54,46.811L74.811,27c0.549-0.561,0.549-1.46,0-2.02  c-0.561-0.551-1.471-0.551-2.021,0L53.6,44.71c-0.89-0.58-1.959-0.92-3.1-0.92c-3.15,0-5.71,2.56-5.71,5.71s2.56,5.71,5.71,5.71  c3.15,0,5.71-2.56,5.71-5.71C56.21,48.529,55.971,47.609,55.54,46.811z M48.79,49.5c0-0.95,0.76-1.71,1.71-1.71s1.71,0.76,1.71,1.71  s-0.76,1.71-1.71,1.71S48.79,50.45,48.79,49.5z M11.64,49.5c0-21.46,17.4-38.86,38.86-38.86s38.859,17.4,38.859,38.86  S71.96,88.359,50.5,88.359S11.64,70.96,11.64,49.5z M3,49.5C3,75.73,24.27,97,50.5,97C76.73,97,98,75.73,98,49.5  C98,23.27,76.73,2,50.5,2C24.27,2,3,23.27,3,49.5z"/></svg>